<svg width="211" height="203" viewBox="0 0 211 203" fill="none" xmlns="http://www.w3.org/2000/svg">
<path d="M16.5639 1.59675C9.28835 -2.24657 0.550781 3.03599 0.550781 11.2643V191.275C0.550781 197.309 5.44201 202.2 11.4756 202.2H18.6884C24.7221 202.2 29.6133 197.309 29.6133 191.275V56.6949C29.6133 49.0726 37.1732 43.8568 44.1931 46.8267C64.3939 55.373 99.6118 71.8553 110.238 86.8878C125.428 108.376 125.947 126.212 110.238 139.388C103.391 145.131 97.3935 146.193 89.5267 146.212C83.4005 146.226 78.3633 150.988 78.3633 157.114V191.275C78.3633 197.309 83.2545 202.2 89.2881 202.2H94.6259C100.66 202.2 105.551 197.309 105.551 191.275V178.182C105.551 173.488 108.576 169.379 112.901 167.554C135.541 157.996 149.656 141.743 151.488 116.888C152.928 97.3578 147.584 84.7716 133.676 70.0128C133.676 70.0128 126.269 62.7481 121.028 58.687C116.169 54.9221 113.29 52.9803 107.979 49.8864C78.9381 34.5458 38.6273 13.2517 16.5639 1.59675Z" fill="#F7931B"/>
<path d="M133.676 70.0128L166.923 50.5665C174.206 46.3066 183.363 51.5593 183.363 59.9967V191.275C183.363 197.309 188.254 202.2 194.288 202.2H199.626C205.66 202.2 210.551 197.309 210.551 191.275V11.6675C210.551 3.34593 201.633 -1.92819 194.351 2.10029C173.102 13.8567 135.312 34.7642 107.979 49.8864C113.29 52.9803 116.169 54.9221 121.028 58.687C126.269 62.7481 133.676 70.0128 133.676 70.0128Z" fill="#F0712B"/>
<ellipse cx="78.9898" cy="108.413" rx="14.4977" ry="14.497" fill="#F0712B"/>
</svg>
